<svg xmlns="http://www.w3.org/2000/svg" viewBox="0 0 76 76">
    <title>gplus</title>
    <symbol id="gplus" data-name="Слой 2" viewBox="0 0 76 76">
        <path
            d="M14.58,48.52a10,10,0,0,1,1.1-4.32c-1.22.11-2.43.22-3.53.22A18.87,18.87,0,0,1,0,40V59.62c5-4,13.67-3.28,17.89-3.56C16.34,54.06,14.58,52,14.58,48.52Z"
            />
        <path
            d="M21.64,59.27a17.85,17.85,0,0,0-2.53-.11,44.09,44.09,0,0,0-11.6,1.77C5.92,61.52,2.28,62.9,0,66v5.14C0,75,3.63,76,7.5,76H35.65a4.8,4.8,0,0,0,.46-2C36.05,68.34,30,65.26,21.64,59.27Z"
            />
        <path
            d="M76,19.5V6.5c0-5-2.63-6.5-6.5-6.5H7.5C3.63,0,0,1.5,0,6.5V13c.28-.27.6-.56.89-.82C7.18,7,14.09,6.11,19.88,6H43.21L37,11H30.25A17.76,17.76,0,0,1,37,25c0,8.2-4.32,12.09-9,15.74C26.61,42.2,25,43.76,25,46.2S26.61,50,27.82,51l4,3.1c4.85,4.1,11.2,8.85,11.2,16.5A13.82,13.82,0,0,1,42.11,76H69.5c3.87,0,6.5-1,6.5-4.86V25.38H62V39.5H56V25.38H42V19.5H56V5.5h6v14Z"
            />
        <path
            d="M28,30.13c0-8-4.63-20.38-13.78-20.38A10.32,10.32,0,0,0,6.49,13.4c-1.88,2.33-2.17,5.32-2.17,8.2C4.32,29,8.22,40,17.71,40c2.76,0,5.59-.7,7.4-2.77A12.06,12.06,0,0,0,28,30.13Z"
            />
    </symbol>
</svg>
