<svg xmlns="http://www.w3.org/2000/svg" viewBox="0 0 2499.56 2471">
    <title>kaixin</title>
        <symbol id="xin" viewBox="0 0 2499.56 2471">
            <path
                d="M2340.18,943c-196.67-36.68-384.81-59.85-591.28-108.78-8.54-2.44-10.94-7.31-13.41-15.85-36.65-194.25-64.73-392.15-97.71-590.09-22-129.49-112.43-305.39-370.21-191.77-211.33,92.84-389.72,249.2-544.85,431.24h0c-12.22,13.45-18.32,17.11-36.64,13.47C546.83,458,425.9,415.28,229.2,305.33c-99-53.74-240.66,40.3-228.46,272.43,13.43,240.65,66,416.58,256.56,689,14.66,19.61,13.41,33,7.32,56.19-66,237-134.39,498.44-42.76,803.9,58.62,196.71,182,295.61,339.6,190.55,144.15-96.51,248-172.28,353.07-257.73,15.9-13.48,23.2-13.48,39.08,0,142.93,120.91,292,229.6,458.13,317.61,304.21,161.26,508.2,112.39,485-130.72-17.12-171-42.75-358-51.34-529-1.19-14.62,2.46-17,15.91-21.94,171-50.11,349.4-128.3,474-274.87C2580.82,1133.62,2524.66,978.45,2340.18,943ZM715.4,1001.63c17.09-232.07,178.35-442.21,309.07-419C1124.66,599.73,1163.73,695,1177.17,805h0c52.53-62.27,134.41-101.4,196.72-80.62,136.79,45.22,156.36,249.22,100.14,439.8-48.87,163.69-155.12,283.44-279.75,257.77-114.82-23.2-141.7-153.93-135.61-256.56-55,69.67-117.28,139.25-223.56,119.74C736.16,1266.75,703.17,1151.94,715.4,1001.63ZM1474,1489.12c-185.7,147.84-444.67,305.4-674.33,227.19-182-62.28-229.66-296.86-263.88-535-20.8,0-70.89-17.14-56.24-18.35h0c47.66,0,91.66-13.45,140.54-52.53,17.07-14.64-35.46,50.06-62.32,64.73,26.86,199.16,102.6,422.72,277.3,478.91,206.46,67.18,481.37-73.29,629.18-184.49-4.89-41.51,20.73-103.83,19.5-84.29-2.43,58.66,11,108.75,45.25,144.14C1546.11,1549,1488.73,1509.85,1474,1489.12Z"
                fill="#fbc32f" />
            <path
                d="M1406.86,835.55c-35.43-6.19-84.3,41.47-99,136.79h0c-8.56,55-9.79,138.05,37.88,141.73,42.74,2.43,77-59.89,88-106.28C1458.18,910,1442.28,842.86,1406.86,835.55Z"
                fill="#010101" />
            <path
                d="M1057.44,702.37c-34.2-9.77-86.74,34.21-109.93,128.29-12.23,53.71-19.56,136.81,26.87,142.9,42.76,6.11,81.85-53.74,96.51-97.71C1102.64,779.3,1092.88,710.92,1057.44,702.37Z"
                fill="#010101" />
            <path
                d="M1042.79,736.58c-17.1,0-31.78,14.64-31.79,33s14.69,33,31.79,33h.32a32.81,32.81,0,0,0,32.65-33v-.3A32.82,32.82,0,0,0,1042.79,736.58Z"
                fill="#ebf5fa" />
            <path
                d="M1398.29,875.84h-.22a32.87,32.87,0,0,0-32.76,33c0,17.1,14.66,31.81,33,31.81s33-14.72,33-31.81v-.25A32.86,32.86,0,0,0,1398.29,875.84Z"
                fill="#ebf5fa" />
        </symbol>
</svg>
